2015007_C4_04_grf
version=1
nRows=30
nColumns=19
inDegrees=no
endheader
time	ground_force_1_vx	ground_force_1_vy	ground_force_1_vz	ground_force_1_px	ground_force_1_py	ground_force_1_pz	ground_force_1_mx	ground_force_1_my	ground_force_1_mz	ground_force_2_vx	ground_force_2_vy	ground_force_2_vz	ground_force_2_px	ground_force_2_py	ground_force_2_pz	ground_force_2_mx	ground_force_2_my	ground_force_2_mz
      0.40500000	    -11.23313513	    498.35920334	    -32.79827908	      0.27826745	      0.00000000	     -0.14559141	      0.00000000	      1.57867150	      0.00000000	      0.00000000	      0.00000000	      0.00000000	      0.00000000	      0.00000000	      0.00000000	      0.00000000	      0.00000000	      0.00000000
      0.40600000	    -10.94418205	    499.48771298	    -32.84196183	      0.27862166	      0.00000000	     -0.14556117	      0.00000000	      1.58140704	      0.00000000	      0.00000000	      0.00000000	      0.00000000	      0.00000000	      0.00000000	      0.00000000	      0.00000000	      0.00000000	      0.00000000
      0.40700000	    -10.64793905	    500.64368173	    -32.88438357	      0.27896607	      0.00000000	     -0.14553397	      0.00000000	      1.58473177	      0.00000000	      0.00000000	      0.00000000	      0.00000000	      0.00000000	      0.00000000	      0.00000000	      0.00000000	      0.00000000	      0.00000000
      0.40800000	    -10.34572255	    501.82160735	    -32.92585164	      0.27930253	      0.00000000	     -0.14550916	      0.00000000	      1.58852397	      0.00000000	      0.00000000	      0.00000000	      0.00000000	      0.00000000	      0.00000000	      0.00000000	      0.00000000	      0.00000000	      0.00000000
      0.40900000	    -10.03586687	    503.02693993	    -32.96619840	      0.27962895	      0.00000000	     -0.14548727	      0.00000000	      1.59289380	      0.00000000	      0.00000000	      0.00000000	      0.00000000	      0.00000000	      0.00000000	      0.00000000	      0.00000000	      0.00000000	      0.00000000
      0.41000000	     -9.71976388	    504.25402075	    -33.00570697	      0.27994726	      0.00000000	     -0.14546768	      0.00000000	      1.59771846	      0.00000000	      0.00000000	      0.00000000	      0.00000000	      0.00000000	      0.00000000	      0.00000000	      0.00000000	      0.00000000	      0.00000000
      0.41100000	     -9.39569948	    505.50814345	    -33.04425254	      0.28025537	      0.00000000	     -0.14545093	      0.00000000	      1.60310150	      0.00000000	      0.00000000	      0.00000000	      0.00000000	      0.00000000	      0.00000000	      0.00000000	      0.00000000	      0.00000000	      0.00000000
      0.41200000	     -9.06514935	    506.78370148	    -33.08209404	      0.28055525	      0.00000000	     -0.14543644	      0.00000000	      1.60892218	      0.00000000	      0.00000000	      0.00000000	      0.00000000	      0.00000000	      0.00000000	      0.00000000	      0.00000000	      0.00000000	      0.00000000
      0.41300000	     -8.72636493	    508.08580592	    -33.11914392	      0.28084483	      0.00000000	     -0.14542475	      0.00000000	      1.61527957	      0.00000000	      0.00000000	      0.00000000	      0.00000000	      0.00000000	      0.00000000	      0.00000000	      0.00000000	      0.00000000	      0.00000000
      0.41400000	     -8.38089827	    509.40892845	    -33.15563872	      0.28112612	      0.00000000	     -0.14541527	      0.00000000	      1.62205695	      0.00000000	      0.00000000	      0.00000000	      0.00000000	      0.00000000	      0.00000000	      0.00000000	      0.00000000	      0.00000000	      0.00000000
      0.41500000	     -8.02697521	    510.75786725	    -33.19152817	      0.28139704	      0.00000000	     -0.14540846	      0.00000000	      1.62934794	      0.00000000	      0.00000000	      0.00000000	      0.00000000	      0.00000000	      0.00000000	      0.00000000	      0.00000000	      0.00000000	      0.00000000
      0.41600000	     -7.66621158	    512.12719828	    -33.22701529	      0.28165967	      0.00000000	     -0.14540374	      0.00000000	      1.63703972	      0.00000000	      0.00000000	      0.00000000	      0.00000000	      0.00000000	      0.00000000	      0.00000000	      0.00000000	      0.00000000	      0.00000000
      0.41700000	     -7.29681319	    513.52151111	    -33.26209262	      0.28191197	      0.00000000	     -0.14540155	      0.00000000	      1.64521885	      0.00000000	      0.00000000	      0.00000000	      0.00000000	      0.00000000	      0.00000000	      0.00000000	      0.00000000	      0.00000000	      0.00000000
      0.41800000	     -6.92044524	    514.93543386	    -33.29693154	      0.28215603	      0.00000000	     -0.14540133	      0.00000000	      1.65377568	      0.00000000	      0.00000000	      0.00000000	      0.00000000	      0.00000000	      0.00000000	      0.00000000	      0.00000000	      0.00000000	      0.00000000
      0.41900000	     -6.53529889	    516.37324318	    -33.33157860	      0.28238988	      0.00000000	     -0.14540348	      0.00000000	      1.66278767	      0.00000000	      0.00000000	      0.00000000	      0.00000000	      0.00000000	      0.00000000	      0.00000000	      0.00000000	      0.00000000	      0.00000000
      0.42000000	     -6.14308845	    517.82961935	    -33.36615488	      0.28261561	      0.00000000	     -0.14540743	      0.00000000	      1.67215018	      0.00000000	      0.00000000	      0.00000000	      0.00000000	      0.00000000	      0.00000000	      0.00000000	      0.00000000	      0.00000000	      0.00000000
      0.42100000	     -5.74201206	    519.30852607	    -33.40074234	      0.28283128	      0.00000000	     -0.14541357	      0.00000000	      1.68193252	      0.00000000	      0.00000000	      0.00000000	      0.00000000	      0.00000000	      0.00000000	      0.00000000	      0.00000000	      0.00000000	      0.00000000
      0.42200000	     -5.33382362	    520.80485225	    -33.43541920	      0.28303901	      0.00000000	     -0.14542136	      0.00000000	      1.69203435	      0.00000000	      0.00000000	      0.00000000	      0.00000000	      0.00000000	      0.00000000	      0.00000000	      0.00000000	      0.00000000	      0.00000000
      0.42300000	     -4.91673662	    522.32201397	    -33.47031958	      0.28323690	      0.00000000	     -0.14543109	      0.00000000	      1.70251408	      0.00000000	      0.00000000	      0.00000000	      0.00000000	      0.00000000	      0.00000000	      0.00000000	      0.00000000	      0.00000000	      0.00000000
      0.42400000	     -4.49253339	    523.85523915	    -33.50548074	      0.28342704	      0.00000000	     -0.14544229	      0.00000000	      1.71328015	      0.00000000	      0.00000000	      0.00000000	      0.00000000	      0.00000000	      0.00000000	      0.00000000	      0.00000000	      0.00000000	      0.00000000
      0.42500000	     -4.05945699	    525.40744841	    -33.54107402	      0.28360763	      0.00000000	     -0.14545520	      0.00000000	      1.72438347	      0.00000000	      0.00000000	      0.00000000	      0.00000000	      0.00000000	      0.00000000	      0.00000000	      0.00000000	      0.00000000	      0.00000000
      0.42600000	     -3.61931394	    526.97405219	    -33.57708827	      0.28378072	      0.00000000	     -0.14546936	      0.00000000	      1.73574052	      0.00000000	      0.00000000	      0.00000000	      0.00000000	      0.00000000	      0.00000000	      0.00000000	      0.00000000	      0.00000000	      0.00000000
      0.42700000	     -3.17038980	    528.55771035	    -33.61372091	      0.28394459	      0.00000000	     -0.14548500	      0.00000000	      1.74739336	      0.00000000	      0.00000000	      0.00000000	      0.00000000	      0.00000000	      0.00000000	      0.00000000	      0.00000000	      0.00000000	      0.00000000
      0.42800000	     -2.71448470	    530.15404195	    -33.65092352	      0.28410122	      0.00000000	     -0.14550166	      0.00000000	      1.75926671	      0.00000000	      0.00000000	      0.00000000	      0.00000000	      0.00000000	      0.00000000	      0.00000000	      0.00000000	      0.00000000	      0.00000000
      0.42900000	     -2.24990945	    531.76523745	    -33.68891031	      0.28424898	      0.00000000	     -0.14551950	      0.00000000	      1.77139668	      0.00000000	      0.00000000	      0.00000000	      0.00000000	      0.00000000	      0.00000000	      0.00000000	      0.00000000	      0.00000000	      0.00000000
      0.43000000	     -1.77844858	    533.38748962	    -33.72757509	      0.28438979	      0.00000000	     -0.14553817	      0.00000000	      1.78371770	      0.00000000	      0.00000000	      0.00000000	      0.00000000	      0.00000000	      0.00000000	      0.00000000	      0.00000000	      0.00000000	      0.00000000
      0.43100000	     -1.29845156	    535.02225876	    -33.76712464	      0.28452210	      0.00000000	     -0.14555779	      0.00000000	      1.79626079	      0.00000000	      0.00000000	      0.00000000	      0.00000000	      0.00000000	      0.00000000	      0.00000000	      0.00000000	      0.00000000	      0.00000000
      0.43200000	     -0.81168761	    536.66620702	    -33.80740434	      0.28464777	      0.00000000	     -0.14557807	      0.00000000	      1.80896933	      0.00000000	      0.00000000	      0.00000000	      0.00000000	      0.00000000	      0.00000000	      0.00000000	      0.00000000	      0.00000000	      0.00000000
      0.43300000	     -0.31654524	    538.32029924	    -33.84859860	      0.28476538	      0.00000000	     -0.14559910	      0.00000000	      1.82187192	      0.00000000	      0.00000000	      0.00000000	      0.00000000	      0.00000000	      0.00000000	      0.00000000	      0.00000000	      0.00000000	      0.00000000
      0.43400000	      0.18523207	    539.98153657	    -33.89050812	      0.28487670	      0.00000000	     -0.14562070	      0.00000000	      1.83492256	      0.00000000	      0.00000000	      0.00000000	      0.00000000	      0.00000000	      0.00000000	      0.00000000	      0.00000000	      0.00000000	      0.00000000
